<svg width="307" height="47" viewBox="0 0 307 47" fill="none" xmlns="http://www.w3.org/2000/svg">
<path d="M14.896 46H9.904L0.24 1.2H5.232L12.848 38.192L23.92 1.2H28.72L39.792 38.064L47.472 1.2H52.272L42.608 46H37.616L26.288 8.048L14.896 46ZM82.54 42.608C80.748 43.9307 78.8707 44.9333 76.908 45.616C74.988 46.256 72.876 46.576 70.572 46.576C68.268 46.576 66.092 46.1493 64.044 45.296C62.0387 44.4427 60.2893 43.2693 58.796 41.776C57.3453 40.2827 56.1933 38.5333 55.34 36.528C54.4867 34.48 54.06 32.2827 54.06 29.936C54.06 27.632 54.4653 25.4773 55.276 23.472C56.1293 21.4667 57.26 19.7173 58.668 18.224C60.076 16.7307 61.74 15.5573 63.66 14.704C65.6227 13.8507 67.692 13.424 69.868 13.424C72.0013 13.424 73.9853 13.8507 75.82 14.704C77.6973 15.5573 79.2973 16.7307 80.62 18.224C81.9853 19.7173 83.052 21.4667 83.82 23.472C84.6307 25.4773 85.036 27.632 85.036 29.936V31.408H58.732C59.0733 34.5653 60.3747 37.1893 62.636 39.28C64.8973 41.3707 67.6067 42.416 70.764 42.416C72.428 42.416 74.0493 42.16 75.628 41.648C77.2067 41.136 78.5293 40.4107 79.596 39.472L82.54 42.608ZM69.74 17.584C66.9667 17.584 64.556 18.5227 62.508 20.4C60.5027 22.2773 59.2867 24.688 58.86 27.632H80.3C79.8733 24.816 78.6573 22.448 76.652 20.528C74.6893 18.5653 72.3853 17.584 69.74 17.584ZM122.825 29.936C122.825 32.24 122.398 34.416 121.545 36.464C120.734 38.512 119.604 40.2827 118.153 41.776C116.702 43.2267 114.974 44.3787 112.969 45.232C111.006 46.0853 108.894 46.512 106.633 46.512C104.756 46.512 102.921 46.192 101.129 45.552C99.3797 44.912 97.7797 43.9947 96.329 42.8V46H91.657V1.2L96.393 0.112V17.328C97.7157 16.048 99.2517 15.088 101.001 14.448C102.793 13.7653 104.692 13.424 106.697 13.424C108.958 13.424 111.07 13.8507 113.033 14.704C114.996 15.5573 116.702 16.7307 118.153 18.224C119.604 19.6747 120.734 21.424 121.545 23.472C122.398 25.4773 122.825 27.632 122.825 29.936ZM106.249 17.584C104.244 17.584 102.366 17.9893 100.617 18.8C98.9103 19.568 97.5023 20.656 96.393 22.064V37.936C97.5023 39.3013 98.9317 40.3893 100.681 41.2C102.43 41.968 104.286 42.352 106.249 42.352C109.62 42.352 112.436 41.1787 114.697 38.832C117.001 36.4427 118.153 33.4987 118.153 30C118.153 28.2507 117.833 26.6293 117.193 25.136C116.596 23.6 115.764 22.2773 114.697 21.168C113.63 20.0587 112.372 19.184 110.921 18.544C109.47 17.904 107.913 17.584 106.249 17.584ZM133.951 13.936V33.264C133.951 36.08 134.762 38.32 136.383 39.984C138.004 41.648 140.18 42.48 142.911 42.48C144.831 42.48 146.538 42.0533 148.031 41.2C149.567 40.304 150.804 39.0667 151.743 37.488V13.936H156.479V46H151.743V42.288C150.506 43.7387 149.034 44.8267 147.327 45.552C145.663 46.2773 143.786 46.64 141.695 46.64C138.026 46.64 135.039 45.488 132.735 43.184C130.431 40.88 129.279 37.8933 129.279 34.224V13.936H133.951ZM169.268 0.112V46H164.532V1.2L169.268 0.112ZM187.457 46.576C183.958 46.576 181.099 45.68 178.881 43.888C176.705 42.096 175.617 39.7707 175.617 36.912C175.617 33.9253 176.769 31.5573 179.073 29.808C181.377 28.016 184.491 27.12 188.417 27.12C190.123 27.12 191.766 27.312 193.345 27.696C194.966 28.08 196.459 28.6133 197.825 29.296V25.072C197.825 22.512 197.099 20.592 195.649 19.312C194.198 17.9893 192.086 17.328 189.312 17.328C187.734 17.328 186.134 17.5627 184.513 18.032C182.934 18.4587 181.185 19.1627 179.265 20.144L177.473 16.496C179.777 15.3867 181.91 14.576 183.873 14.064C185.835 13.552 187.798 13.296 189.76 13.296C193.814 13.296 196.929 14.256 199.105 16.176C201.323 18.096 202.433 20.848 202.433 24.432V46H197.825V42.864C196.374 44.1013 194.774 45.04 193.025 45.68C191.318 46.2773 189.462 46.576 187.457 46.576ZM180.161 36.784C180.161 38.576 180.907 40.048 182.401 41.2C183.937 42.3093 185.899 42.864 188.289 42.864C190.209 42.864 191.958 42.5653 193.537 41.968C195.115 41.3707 196.545 40.432 197.825 39.152V33.136C196.502 32.24 195.073 31.6 193.537 31.216C192.043 30.7893 190.379 30.576 188.545 30.576C185.985 30.576 183.937 31.152 182.401 32.304C180.907 33.4133 180.161 34.9067 180.161 36.784ZM210.345 46V13.936H215.081V17.712C216.318 16.2613 217.79 15.1733 219.497 14.448C221.203 13.68 223.102 13.296 225.193 13.296C228.819 13.296 231.785 14.448 234.089 16.752C236.393 19.056 237.545 22.0427 237.545 25.712V46H232.873V26.672C232.873 23.856 232.062 21.616 230.441 19.952C228.819 18.288 226.643 17.456 223.913 17.456C221.993 17.456 220.265 17.8827 218.729 18.736C217.235 19.5893 216.019 20.8053 215.081 22.384V46H210.345ZM260.446 42.288C262.152 42.288 263.795 41.9467 265.374 41.264C266.952 40.5813 268.424 39.5787 269.79 38.256L272.734 41.456C271.027 43.0773 269.107 44.336 266.974 45.232C264.84 46.128 262.622 46.576 260.318 46.576C258.056 46.576 255.923 46.1493 253.918 45.296C251.912 44.4427 250.184 43.2693 248.734 41.776C247.283 40.2827 246.131 38.512 245.278 36.464C244.424 34.416 243.998 32.24 243.998 29.936C243.998 27.632 244.424 25.4773 245.278 23.472C246.131 21.424 247.283 19.6533 248.734 18.16C250.184 16.6667 251.912 15.4933 253.918 14.64C255.923 13.744 258.056 13.296 260.318 13.296C262.622 13.296 264.862 13.744 267.038 14.64C269.256 15.536 271.198 16.7733 272.862 18.352L269.854 21.808C268.574 20.4853 267.102 19.4613 265.438 18.736C263.774 18.0107 262.088 17.648 260.382 17.648C258.76 17.648 257.224 17.968 255.774 18.608C254.323 19.248 253.064 20.1227 251.998 21.232C250.974 22.3413 250.163 23.6427 249.566 25.136C248.968 26.6293 248.67 28.2293 248.67 29.936C248.67 31.6853 248.968 33.328 249.566 34.864C250.206 36.3573 251.038 37.6587 252.062 38.768C253.128 39.8347 254.387 40.688 255.838 41.328C257.288 41.968 258.824 42.288 260.446 42.288ZM304.04 42.608C302.248 43.9307 300.371 44.9333 298.408 45.616C296.488 46.256 294.376 46.576 292.072 46.576C289.768 46.576 287.592 46.1493 285.544 45.296C283.539 44.4427 281.789 43.2693 280.296 41.776C278.845 40.2827 277.693 38.5333 276.84 36.528C275.987 34.48 275.56 32.2827 275.56 29.936C275.56 27.632 275.965 25.4773 276.776 23.472C277.629 21.4667 278.76 19.7173 280.168 18.224C281.576 16.7307 283.24 15.5573 285.16 14.704C287.123 13.8507 289.192 13.424 291.368 13.424C293.501 13.424 295.485 13.8507 297.32 14.704C299.197 15.5573 300.797 16.7307 302.12 18.224C303.485 19.7173 304.552 21.4667 305.32 23.472C306.131 25.4773 306.536 27.632 306.536 29.936V31.408H280.232C280.573 34.5653 281.875 37.1893 284.136 39.28C286.397 41.3707 289.107 42.416 292.264 42.416C293.928 42.416 295.549 42.16 297.128 41.648C298.707 41.136 300.029 40.4107 301.096 39.472L304.04 42.608ZM291.24 17.584C288.467 17.584 286.056 18.5227 284.008 20.4C282.003 22.2773 280.787 24.688 280.36 27.632H301.8C301.373 24.816 300.157 22.448 298.152 20.528C296.189 18.5653 293.885 17.584 291.24 17.584Z" fill="url(#paint0_linear)"/>
<defs>
<linearGradient id="paint0_linear" x1="17.3373" y1="26.5" x2="378.301" y2="26.5" gradientUnits="userSpaceOnUse">
<stop stop-color="#EBFF00"/>
<stop offset="1" stop-color="#FF0000" stop-opacity="0.91"/>
</linearGradient>
</defs>
</svg>
